<svg xmlns="http://www.w3.org/2000/svg" xmlns:xlink="http://www.w3.org/1999/xlink" data-v-0dd9719b="" version="1.0" preserveAspectRatio="xMidYMid meet" color-interpolation-filters="sRGB" style="margin: auto;" viewBox="50.69 100.26 238.61 49.49"><g data-v-0dd9719b="" fill="#C19875" class="endsvg" transform="translate(50.69499206542969,100.25500106811523)"><g class="tp-name"><g><rect data-gra="graph-name-bg" stroke-width="2" class="i-icon-bg" x="0" y="0" width="238.61001586914062" height="49.48999786376953" fill-opacity="0"></rect>   </g> <g transform="translate(0,0)"><g data-gra="path-name-bg" mask="url(#ffadb666-d7a2-4723-8449-3f84e196efed)"><g><rect data-gra="graph-name-bg" stroke-width="2" class="i-icon-bg" x="0" y="0" width="88.4000015258789" height="49.48999786376953"></rect>   </g> <g transform="translate(5,7)"><g data-gra="path-name" fill="#000000"><g transform="scale(1)"><path d="M19.96-34.89Q23.89-34.89 26.80-33.82Q29.71-32.75 31.31-30.76Q32.90-28.77 32.90-26.08L32.90-26.08Q32.90-23.34 31.28-21.30Q29.66-19.26 26.88-18.52L26.88-18.52Q30.21-17.87 32.13-15.48Q34.04-13.09 34.04-9.71L34.04-9.71Q34.04-6.77 32.40-4.55Q30.76-2.34 27.72-1.17Q24.69 0 20.61 0L20.61 0L3.38 0L3.38-34.89L19.96-34.89ZM19.46-21.00Q21.35-21.00 22.45-21.92Q23.54-22.85 23.54-24.49L23.54-24.49Q23.54-26.08 22.45-26.95Q21.35-27.82 19.46-27.77L19.46-27.77L12.49-27.77L12.49-21.00L19.46-21.00ZM19.46-7.07Q21.85-7.07 23.24-8.06Q24.64-9.06 24.64-10.85L24.64-10.85Q24.64-12.49 23.24-13.46Q21.85-14.43 19.46-14.38L19.46-14.38L12.49-14.38L12.49-7.07L19.46-7.07ZM39.02 0L39.02-34.89L48.13-34.89L48.13 0L39.02 0ZM51.86-27.38L51.86-34.89L81.78-34.89L81.78-27.38L71.32-27.38L71.32 0L62.22 0L62.22-27.38L51.86-27.38Z" transform="translate(-3.384548798961264, 35.13958017745077)"></path></g></g></g></g> <g data-gra="path-name-1-bg" transform="translate(88.4000015258789,0)"><g><rect data-gra="graph-name-bg" stroke-width="2" class="i-icon-bg" x="0" y="0" width="150.2100067138672" height="49.48999786376953" fill-opacity="0"></rect>   </g> <g transform="translate(5,7)"><rect data-gra="graph-name-bg" x="0" y="-7" width="140.2100067138672" height="2" fill="#A1D2CE"></rect> <rect data-gra="graph-name-bg" x="0" y="40.48999786376953" width="140.2100067138672" height="2" fill="#A1D2CE"></rect> <g data-gra="path-name-1" fill="#A1D2CE"><g transform="scale(1)"><path d="M18.42-34.84Q24.94-34.84 28.49-31.76Q32.05-28.67 32.05-23.09L32.05-23.09Q32.05-17.27 28.47-14.06Q24.89-10.85 18.42-10.85L18.42-10.85L9.76-10.85L9.76 0L4.98 0L4.98-34.84L18.42-34.84ZM18.22-15.18Q22.70-15.18 25.09-17.15Q27.47-19.11 27.47-22.95L27.47-22.95Q27.47-26.68 25.09-28.59Q22.70-30.51 18.22-30.51L18.22-30.51L9.76-30.46L9.76-15.18L18.22-15.18ZM38.37 0L38.37-34.84L43.15-34.84L43.15 0L38.37 0ZM53.11 0L53.11-34.84L77.30-34.84L77.30-30.51L57.89-30.51L57.89-19.76L75.26-19.76L75.26-15.43L57.89-15.43L57.89-4.33L77.89-4.33L77.89 0L53.11 0ZM110.84-26.48Q108.85-28.57 106.22-29.74Q103.58-30.91 100.79-30.91L100.79-30.91Q97.11-30.91 94.02-29.12Q90.93-27.33 89.14-24.26Q87.35-21.20 87.35-17.52L87.35-17.52Q87.35-13.89 89.14-10.80Q90.93-7.71 94.02-5.92Q97.11-4.13 100.79-4.13L100.79-4.13Q103.53-4.13 106.17-5.25Q108.80-6.37 110.84-8.31L110.84-8.31L113.73-5.18Q111.09-2.59 107.61-1.12Q104.12 0.35 100.54 0.35L100.54 0.35Q95.56 0.35 91.43-2.02Q87.30-4.38 84.91-8.46Q82.52-12.54 82.52-17.47L82.52-17.47Q82.52-22.35 84.94-26.40Q87.35-30.46 91.53-32.80Q95.71-35.14 100.74-35.14L100.74-35.14Q104.37-35.14 107.78-33.77Q111.19-32.40 113.68-29.91L113.68-29.91L110.84-26.48ZM120.40 0L120.40-34.84L144.59-34.84L144.59-30.51L125.18-30.51L125.18-19.76L142.55-19.76L142.55-15.43L125.18-15.43L125.18-4.33L145.19-4.33L145.19 0L120.40 0Z" transform="translate(-4.97727764553127, 35.13958017745077)"></path></g></g></g></g></g></g>      </g></svg>